<?xml version="1.0" standalone="no"?>
<!DOCTYPE svg PUBLIC "-//W3C//DTD SVG 20010904//EN"
 "http://www.w3.org/TR/2001/REC-SVG-20010904/DTD/svg10.dtd">
<svg version="1.0" xmlns="http://www.w3.org/2000/svg"
 width="300.000000pt" height="300.000000pt" viewBox="0 0 300.000000 300.000000"
 preserveAspectRatio="xMidYMid meet">
<metadata>
Created by potrace 1.14, written by Peter Selinger 2001-2017
</metadata>
<g transform="translate(0.000000,300.000000) scale(0.100000,-0.100000)"
fill="#000000" stroke="none">
<path d="M1785 2954 c-61 -10 -167 -39 -325 -90 -59 -19 -224 -38 -330 -38
-82 0 -88 1 -162 42 -83 46 -117 49 -119 9 -2 -39 2 -52 29 -80 62 -66 137
-84 367 -88 106 -2 113 -3 60 -9 -102 -13 -239 -11 -289 4 -39 12 -48 12 -52
1 -10 -24 40 -87 71 -90 114 -11 133 -18 151 -50 13 -25 30 -37 71 -51 29 -10
53 -22 53 -26 0 -4 18 -7 40 -5 54 4 47 -11 -21 -48 -44 -24 -54 -34 -51 -52
4 -26 37 -38 78 -30 24 4 26 3 20 -26 -4 -17 -10 -33 -14 -37 -9 -6 -60 -210
-66 -265 -13 -105 -10 -155 9 -155 10 0 15 -11 16 -37 3 -89 9 -126 22 -136 8
-7 17 -19 21 -27 3 -8 3 17 -1 55 -29 293 21 514 160 708 59 82 205 226 259
257 32 18 40 19 29 6 -13 -16 -12 -16 15 -4 16 7 42 20 58 29 18 11 40 15 61
12 18 -3 49 0 70 7 27 9 40 9 48 1 6 -6 39 -11 73 -11 39 0 97 -11 158 -29
118 -35 132 -45 77 -56 -76 -14 -183 -132 -224 -245 -21 -59 -29 -110 -28
-195 1 -67 3 -85 16 -178 14 -100 69 -288 124 -425 l21 -53 -58 60 c-86 89
-125 106 -247 106 -89 -1 -108 -4 -178 -33 -120 -49 -260 -148 -393 -277 -11
-11 -49 -45 -84 -75 -59 -51 -116 -102 -198 -178 -46 -43 -66 -47 -106 -23
-44 28 -74 27 -85 -2 -8 -22 2 -55 21 -68 13 -9 -24 -50 -47 -51 -12 -1 -49
15 -84 36 -236 144 -517 92 -546 -101 -24 -150 181 -246 390 -183 39 12 93 28
121 36 50 15 52 15 101 -10 28 -15 72 -29 99 -32 32 -4 64 -16 94 -37 110 -76
159 -107 215 -135 231 -116 402 -169 578 -177 38 -2 74 -8 81 -14 10 -8 13
-35 11 -93 -3 -92 5 -130 36 -171 13 -18 19 -37 15 -51 -7 -29 19 -66 47 -66
13 0 33 7 46 16 15 11 33 14 52 10 31 -6 89 16 89 34 0 18 59 69 109 94 52 27
86 66 56 66 -8 0 -15 5 -15 11 0 9 -24 10 -84 5 l-84 -6 3 38 c2 20 3 48 4 60
1 14 20 43 49 70 26 26 55 57 63 69 9 13 54 40 101 62 177 82 354 248 453 426
87 155 79 270 -28 391 l-38 44 41 6 c30 5 48 16 70 42 l29 35 -20 28 c-26 37
-77 79 -116 96 -39 16 -37 26 26 123 50 77 99 235 118 382 10 80 -53 260 -128
363 -82 113 -254 243 -342 259 -13 2 -68 20 -120 40 -53 20 -108 36 -122 36
-15 0 -34 4 -44 10 -10 5 -39 11 -64 13 -34 4 -54 13 -79 36 -78 76 -185 105
-303 85z m-245 -309 c0 -13 -86 -57 -128 -65 -45 -8 -147 4 -165 20 -4 4 23 8
62 9 38 1 80 4 93 6 12 2 40 6 62 9 21 4 46 11 55 16 19 11 21 12 21 5z m1062
-108 c53 -31 142 -140 185 -225 31 -62 37 -86 41 -156 8 -152 -72 -380 -168
-476 -28 -28 -50 -59 -50 -71 0 -11 14 -34 30 -51 17 -16 30 -30 30 -31 0 -1
-14 -3 -31 -3 -18 -1 -49 -7 -70 -14 -45 -15 -65 -55 -48 -94 13 -28 32 -38
113 -63 63 -19 136 -75 161 -124 37 -71 7 -190 -79 -317 -58 -85 -161 -173
-257 -220 -4 -1 2 37 12 85 14 69 17 121 15 243 -7 266 -18 318 -165 775 -69
212 -76 253 -75 410 2 196 68 316 195 354 47 14 117 4 161 -22z m-512 -952
c74 -38 124 -127 122 -215 -2 -78 -7 -95 -52 -186 -88 -179 -293 -320 -550
-381 -84 -20 -255 -23 -286 -5 -16 9 -4 17 71 53 82 39 273 172 292 202 4 7
45 42 91 77 45 35 82 65 82 66 0 2 -9 19 -21 38 -31 53 -56 47 -142 -30 -114
-102 -384 -186 -496 -155 l-25 7 25 23 c13 13 49 40 80 61 31 21 82 67 115
101 32 34 74 76 93 93 19 17 69 62 110 100 42 37 96 77 121 89 25 11 71 33
102 49 32 16 77 32 100 36 48 9 128 -3 168 -23z m245 -225 c3 -19 13 -71 22
-115 8 -44 17 -145 19 -225 5 -222 -28 -375 -90 -415 -85 -56 -356 -88 -503
-60 -80 16 -314 91 -339 109 -14 11 -10 13 27 14 43 2 127 11 158 17 168 35
291 86 406 171 185 134 298 325 287 482 -4 70 3 81 13 22z m-1692 -375 c36
-10 117 -48 117 -55 0 -22 -172 -69 -248 -67 -63 2 -92 17 -92 49 0 59 70 100
151 87 27 -4 60 -11 72 -14z m528 -30 c32 -8 62 -15 66 -14 4 1 35 1 68 0 l60
-1 -85 -40 c-117 -54 -134 -56 -198 -20 -28 17 -52 34 -52 39 0 12 52 50 69
51 7 0 39 -7 72 -15z m931 -705 c0 -49 -4 -76 -14 -86 -12 -12 -14 -8 -12 28
2 56 15 140 21 134 3 -2 5 -37 5 -76z"/>
<path d="M2610 2274 c-20 -7 -49 -14 -65 -17 -17 -3 -49 -8 -71 -12 -23 -4
-54 -19 -69 -33 -24 -22 -27 -30 -22 -66 11 -80 12 -81 45 -82 27 -1 33 4 42
33 10 30 30 46 30 24 0 -18 39 -18 56 0 12 13 21 16 29 9 21 -17 60 -5 63 19
3 21 3 21 20 1 23 -28 58 -17 66 20 3 17 14 31 26 35 23 7 26 24 7 49 -17 23
-111 35 -157 20z"/>
<path d="M114 2848 c-3 -4 -17 -7 -32 -6 -70 4 -97 -32 -62 -82 12 -17 26 -30
31 -30 5 0 9 -11 9 -24 0 -26 45 -70 61 -60 5 3 16 18 24 34 8 16 33 47 55 68
40 40 44 68 14 92 -16 14 -93 20 -100 8z"/>
<path d="M515 2475 c-22 -8 -54 -30 -71 -50 l-31 -35 -51 26 c-30 15 -74 28
-110 31 -51 5 -65 2 -91 -16 -39 -28 -51 -72 -36 -131 16 -59 26 -78 101 -182
34 -48 65 -100 68 -115 3 -16 8 -47 11 -71 7 -42 36 -82 61 -82 6 0 26 21 42
48 36 55 78 97 144 141 78 52 165 139 189 187 26 54 21 102 -16 180 -38 78
-113 103 -210 69z m115 -115 c51 -51 9 -123 -125 -212 -22 -15 -56 -42 -75
-59 -31 -29 -35 -30 -45 -14 -5 10 -25 41 -44 69 -19 28 -51 81 -72 119 l-37
67 28 0 c19 0 45 -14 78 -42 63 -54 112 -71 138 -49 12 10 18 26 16 43 -8 72
89 127 138 78z"/>
<path d="M762 2023 c-44 -19 -57 -21 -75 -11 -70 38 -187 -38 -187 -121 0 -39
15 -66 66 -119 24 -24 30 -40 28 -62 -3 -22 3 -34 23 -49 14 -12 30 -21 36
-21 6 0 33 24 61 53 28 28 76 74 108 101 79 69 100 110 89 170 -9 50 -37 80
-76 82 -11 0 -44 -10 -73 -23z m28 -107 c0 -2 -8 -10 -17 -17 -16 -13 -17 -12
-4 4 13 16 21 21 21 13z m-111 -38 c34 -36 36 -43 20 -53 -9 -6 -78 61 -79 78
-1 18 32 4 59 -25z"/>
</g>
</svg>
